<?xml version="1.0" standalone="no"?>
<!DOCTYPE svg PUBLIC "-//W3C//DTD SVG 1.1//EN"
"http://www.w3.org/Graphics/SVG/1.1/DTD/svg11.dtd">
<svg width="8cm" height="8cm" viewBox="0.0 0.0 20.0 20.0"
xmlns="http://www.w3.org/2000/svg" version="1.1">
<line x1="1.0" y1="1.0" x2="1.3535534" y2="0.6464466" stroke="black" stroke-width="5.0e-2" />
<line x1="1.0" y1="2.0" x2="1.3321819" y2="1.6262953" stroke="black" stroke-width="5.0e-2" />
<line x1="1.0" y1="3.0" x2="1.3069704" y2="2.6053238" stroke="black" stroke-width="5.0e-2" />
<line x1="1.0" y1="4.0" x2="1.2773501" y2="3.5839748" stroke="black" stroke-width="5.0e-2" />
<line x1="1.0" y1="5.0" x2="1.2428215" y2="4.5629215" stroke="black" stroke-width="5.0e-2" />
<line x1="1.0" y1="6.0" x2="1.2030692" y2="5.543094" stroke="black" stroke-width="5.0e-2" />
<line x1="1.0" y1="7.0" x2="1.1581138" y2="6.5256586" stroke="black" stroke-width="5.0e-2" />
<line x1="1.0" y1="8.0" x2="1.1084652" y2="7.5119066" stroke="black" stroke-width="5.0e-2" />
<line x1="1.0" y1="9.0" x2="1.0552157" y2="8.503058" stroke="black" stroke-width="5.0e-2" />
<line x1="1.0" y1="10.0" x2="1.0" y2="10.5" stroke="black" stroke-width="5.0e-2" />
<line x1="1.0" y1="11.0" x2="1.0552157" y2="11.496942" stroke="black" stroke-width="5.0e-2" />
<line x1="1.0" y1="12.0" x2="1.1084652" y2="12.488093" stroke="black" stroke-width="5.0e-2" />
<line x1="1.0" y1="13.0" x2="1.1581138" y2="13.474341" stroke="black" stroke-width="5.0e-2" />
<line x1="1.0" y1="14.0" x2="1.2030692" y2="14.456905" stroke="black" stroke-width="5.0e-2" />
<line x1="1.0" y1="15.0" x2="1.2428215" y2="15.437078" stroke="black" stroke-width="5.0e-2" />
<line x1="1.0" y1="16.0" x2="1.2773501" y2="16.416025" stroke="black" stroke-width="5.0e-2" />
<line x1="1.0" y1="17.0" x2="1.3069704" y2="17.394676" stroke="black" stroke-width="5.0e-2" />
<line x1="1.0" y1="18.0" x2="1.3321819" y2="18.373705" stroke="black" stroke-width="5.0e-2" />
<line x1="1.0" y1="19.0" x2="1.3535534" y2="19.353554" stroke="black" stroke-width="5.0e-2" />
<line x1="1.0" y1="20.0" x2="1.3716471" y2="20.334482" stroke="black" stroke-width="5.0e-2" />
<line x1="2.0" y1="1.0" x2="2.3737047" y2="0.66781807" stroke="black" stroke-width="5.0e-2" />
<line x1="2.0" y1="2.0" x2="2.3535533" y2="1.6464466" stroke="black" stroke-width="5.0e-2" />
<line x1="2.0" y1="3.0" x2="2.3292522" y2="2.6237116" stroke="black" stroke-width="5.0e-2" />
<line x1="2.0" y1="4.0" x2="2.3" y2="3.6" stroke="black" stroke-width="5.0e-2" />
<line x1="2.0" y1="5.0" x2="2.2649994" y2="4.5760007" stroke="black" stroke-width="5.0e-2" />
<line x1="2.0" y1="6.0" x2="2.2236068" y2="5.5527864" stroke="black" stroke-width="5.0e-2" />
<line x1="2.0" y1="7.0" x2="2.1755617" y2="6.5318356" stroke="black" stroke-width="5.0e-2" />
<line x1="2.0" y1="8.0" x2="2.1212678" y2="7.514929" stroke="black" stroke-width="5.0e-2" />
<line x1="2.0" y1="9.0" x2="2.0620174" y2="8.503861" stroke="black" stroke-width="5.0e-2" />
<line x1="2.0" y1="10.0" x2="2.0" y2="10.5" stroke="black" stroke-width="5.0e-2" />
<line x1="2.0" y1="11.0" x2="2.0620174" y2="11.496139" stroke="black" stroke-width="5.0e-2" />
<line x1="2.0" y1="12.0" x2="2.1212678" y2="12.485071" stroke="black" stroke-width="5.0e-2" />
<line x1="2.0" y1="13.0" x2="2.1755617" y2="13.468164" stroke="black" stroke-width="5.0e-2" />
<line x1="2.0" y1="14.0" x2="2.2236068" y2="14.447213" stroke="black" stroke-width="5.0e-2" />
<line x1="2.0" y1="15.0" x2="2.2649994" y2="15.423999" stroke="black" stroke-width="5.0e-2" />
<line x1="2.0" y1="16.0" x2="2.3" y2="16.4" stroke="black" stroke-width="5.0e-2" />
<line x1="2.0" y1="17.0" x2="2.3292522" y2="17.376287" stroke="black" stroke-width="5.0e-2" />
<line x1="2.0" y1="18.0" x2="2.3535533" y2="18.353554" stroke="black" stroke-width="5.0e-2" />
<line x1="2.0" y1="19.0" x2="2.3737047" y2="19.332182" stroke="black" stroke-width="5.0e-2" />
<line x1="2.0" y1="20.0" x2="2.3904345" y2="20.312347" stroke="black" stroke-width="5.0e-2" />
<line x1="3.0" y1="1.0" x2="3.3946762" y2="0.6930297" stroke="black" stroke-width="5.0e-2" />
<line x1="3.0" y1="2.0" x2="3.3762884" y2="1.6707478" stroke="black" stroke-width="5.0e-2" />
<line x1="3.0" y1="3.0" x2="3.3535533" y2="2.6464467" stroke="black" stroke-width="5.0e-2" />
<line x1="3.0" y1="4.0" x2="3.3253956" y2="3.6203718" stroke="black" stroke-width="5.0e-2" />
<line x1="3.0" y1="5.0" x2="3.2906191" y2="4.5931334" stroke="black" stroke-width="5.0e-2" />
<line x1="3.0" y1="6.0" x2="3.2480695" y2="5.5658784" stroke="black" stroke-width="5.0e-2" />
<line x1="3.0" y1="7.0" x2="3.1969597" y2="6.5404277" stroke="black" stroke-width="5.0e-2" />
<line x1="3.0" y1="8.0" x2="3.1373606" y2="7.519238" stroke="black" stroke-width="5.0e-2" />
<line x1="3.0" y1="9.0" x2="3.0707107" y2="8.505025" stroke="black" stroke-width="5.0e-2" />
<line x1="3.0" y1="10.0" x2="3.0" y2="10.5" stroke="black" stroke-width="5.0e-2" />
<line x1="3.0" y1="11.0" x2="3.0707107" y2="11.494975" stroke="black" stroke-width="5.0e-2" />
<line x1="3.0" y1="12.0" x2="3.1373606" y2="12.480762" stroke="black" stroke-width="5.0e-2" />
<line x1="3.0" y1="13.0" x2="3.1969597" y2="13.459573" stroke="black" stroke-width="5.0e-2" />
<line x1="3.0" y1="14.0" x2="3.2480695" y2="14.434121" stroke="black" stroke-width="5.0e-2" />
<line x1="3.0" y1="15.0" x2="3.2906191" y2="15.406867" stroke="black" stroke-width="5.0e-2" />
<line x1="3.0" y1="16.0" x2="3.3253956" y2="16.37963" stroke="black" stroke-width="5.0e-2" />
<line x1="3.0" y1="17.0" x2="3.3535533" y2="17.353554" stroke="black" stroke-width="5.0e-2" />
<line x1="3.0" y1="18.0" x2="3.3762884" y2="18.329252" stroke="black" stroke-width="5.0e-2" />
<line x1="3.0" y1="19.0" x2="3.3946762" y2="19.30697" stroke="black" stroke-width="5.0e-2" />
<line x1="3.0" y1="20.0" x2="3.409616" y2="20.286732" stroke="black" stroke-width="5.0e-2" />
<line x1="4.0" y1="1.0" x2="4.416025" y2="0.7226499" stroke="black" stroke-width="5.0e-2" />
<line x1="4.0" y1="2.0" x2="4.4" y2="1.7" stroke="black" stroke-width="5.0e-2" />
<line x1="4.0" y1="3.0" x2="4.379628" y2="2.6746044" stroke="black" stroke-width="5.0e-2" />
<line x1="4.0" y1="4.0" x2="4.3535533" y2="3.6464467" stroke="black" stroke-width="5.0e-2" />
<line x1="4.0" y1="5.0" x2="4.320092" y2="4.6158895" stroke="black" stroke-width="5.0e-2" />
<line x1="4.0" y1="6.0" x2="4.27735" y2="5.583975" stroke="black" stroke-width="5.0e-2" />
<line x1="4.0" y1="7.0" x2="4.2236066" y2="6.5527864" stroke="black" stroke-width="5.0e-2" />
<line x1="4.0" y1="8.0" x2="4.158114" y2="7.5256586" stroke="black" stroke-width="5.0e-2" />
<line x1="4.0" y1="9.0" x2="4.0821996" y2="8.5068035" stroke="black" stroke-width="5.0e-2" />
<line x1="4.0" y1="10.0" x2="4.0" y2="10.5" stroke="black" stroke-width="5.0e-2" />
<line x1="4.0" y1="11.0" x2="4.0821996" y2="11.4931965" stroke="black" stroke-width="5.0e-2" />
<line x1="4.0" y1="12.0" x2="4.158114" y2="12.474341" stroke="black" stroke-width="5.0e-2" />
<line x1="4.0" y1="13.0" x2="4.2236066" y2="13.447213" stroke="black" stroke-width="5.0e-2" />
<line x1="4.0" y1="14.0" x2="4.27735" y2="14.416025" stroke="black" stroke-width="5.0e-2" />
<line x1="4.0" y1="15.0" x2="4.320092" y2="15.38411" stroke="black" stroke-width="5.0e-2" />
<line x1="4.0" y1="16.0" x2="4.3535533" y2="16.353554" stroke="black" stroke-width="5.0e-2" />
<line x1="4.0" y1="17.0" x2="4.379628" y2="17.325396" stroke="black" stroke-width="5.0e-2" />
<line x1="4.0" y1="18.0" x2="4.4" y2="18.3" stroke="black" stroke-width="5.0e-2" />
<line x1="4.0" y1="19.0" x2="4.416025" y2="19.27735" stroke="black" stroke-width="5.0e-2" />
<line x1="4.0" y1="20.0" x2="4.428746" y2="20.257248" stroke="black" stroke-width="5.0e-2" />
<line x1="5.0" y1="1.0" x2="5.4370785" y2="0.75717854" stroke="black" stroke-width="5.0e-2" />
<line x1="5.0" y1="2.0" x2="5.4239993" y2="1.7350005" stroke="black" stroke-width="5.0e-2" />
<line x1="5.0" y1="3.0" x2="5.4068666" y2="2.7093809" stroke="black" stroke-width="5.0e-2" />
<line x1="5.0" y1="4.0" x2="5.3841105" y2="3.6799078" stroke="black" stroke-width="5.0e-2" />
<line x1="5.0" y1="5.0" x2="5.3535533" y2="4.6464467" stroke="black" stroke-width="5.0e-2" />
<line x1="5.0" y1="6.0" x2="5.3123474" y2="5.6095657" stroke="black" stroke-width="5.0e-2" />
<line x1="5.0" y1="7.0" x2="5.257248" y2="6.5712533" stroke="black" stroke-width="5.0e-2" />
<line x1="5.0" y1="8.0" x2="5.185695" y2="7.535762" stroke="black" stroke-width="5.0e-2" />
<line x1="5.0" y1="9.0" x2="5.098058" y2="8.509709" stroke="black" stroke-width="5.0e-2" />
<line x1="5.0" y1="10.0" x2="5.0" y2="10.5" stroke="black" stroke-width="5.0e-2" />
<line x1="5.0" y1="11.0" x2="5.098058" y2="11.490291" stroke="black" stroke-width="5.0e-2" />
<line x1="5.0" y1="12.0" x2="5.185695" y2="12.464238" stroke="black" stroke-width="5.0e-2" />
<line x1="5.0" y1="13.0" x2="5.257248" y2="13.428746" stroke="black" stroke-width="5.0e-2" />
<line x1="5.0" y1="14.0" x2="5.3123474" y2="14.390434" stroke="black" stroke-width="5.0e-2" />
<line x1="5.0" y1="15.0" x2="5.3535533" y2="15.353554" stroke="black" stroke-width="5.0e-2" />
<line x1="5.0" y1="16.0" x2="5.3841105" y2="16.320091" stroke="black" stroke-width="5.0e-2" />
<line x1="5.0" y1="17.0" x2="5.4068666" y2="17.290619" stroke="black" stroke-width="5.0e-2" />
<line x1="5.0" y1="18.0" x2="5.4239993" y2="18.265" stroke="black" stroke-width="5.0e-2" />
<line x1="5.0" y1="19.0" x2="5.4370785" y2="19.24282" stroke="black" stroke-width="5.0e-2" />
<line x1="5.0" y1="20.0" x2="5.4472136" y2="20.223606" stroke="black" stroke-width="5.0e-2" />
<line x1="6.0" y1="1.0" x2="6.456906" y2="0.7969308" stroke="black" stroke-width="5.0e-2" />
<line x1="6.0" y1="2.0" x2="6.4472136" y2="1.7763932" stroke="black" stroke-width="5.0e-2" />
<line x1="6.0" y1="3.0" x2="6.4341216" y2="2.7519305" stroke="black" stroke-width="5.0e-2" />
<line x1="6.0" y1="4.0" x2="6.416025" y2="3.7226498" stroke="black" stroke-width="5.0e-2" />
<line x1="6.0" y1="5.0" x2="6.3904343" y2="4.6876526" stroke="black" stroke-width="5.0e-2" />
<line x1="6.0" y1="6.0" x2="6.3535533" y2="5.6464467" stroke="black" stroke-width="5.0e-2" />
<line x1="6.0" y1="7.0" x2="6.3" y2="6.6" stroke="black" stroke-width="5.0e-2" />
<line x1="6.0" y1="8.0" x2="6.2236066" y2="7.5527864" stroke="black" stroke-width="5.0e-2" />
<line x1="6.0" y1="9.0" x2="6.121268" y2="8.514929" stroke="black" stroke-width="5.0e-2" />
<line x1="6.0" y1="10.0" x2="6.0" y2="10.5" stroke="black" stroke-width="5.0e-2" />
<line x1="6.0" y1="11.0" x2="6.121268" y2="11.485071" stroke="black" stroke-width="5.0e-2" />
<line x1="6.0" y1="12.0" x2="6.2236066" y2="12.447213" stroke="black" stroke-width="5.0e-2" />
<line x1="6.0" y1="13.0" x2="6.3" y2="13.4" stroke="black" stroke-width="5.0e-2" />
<line x1="6.0" y1="14.0" x2="6.3535533" y2="14.353554" stroke="black" stroke-width="5.0e-2" />
<line x1="6.0" y1="15.0" x2="6.3904343" y2="15.312347" stroke="black" stroke-width="5.0e-2" />
<line x1="6.0" y1="16.0" x2="6.416025" y2="16.27735" stroke="black" stroke-width="5.0e-2" />
<line x1="6.0" y1="17.0" x2="6.4341216" y2="17.24807" stroke="black" stroke-width="5.0e-2" />
<line x1="6.0" y1="18.0" x2="6.4472136" y2="18.223606" stroke="black" stroke-width="5.0e-2" />
<line x1="6.0" y1="19.0" x2="6.456906" y2="19.20307" stroke="black" stroke-width="5.0e-2" />
<line x1="6.0" y1="20.0" x2="6.464238" y2="20.185696" stroke="black" stroke-width="5.0e-2" />
<line x1="7.0" y1="1.0" x2="7.474342" y2="0.8418861" stroke="black" stroke-width="5.0e-2" />
<line x1="7.0" y1="2.0" x2="7.4681644" y2="1.8244382" stroke="black" stroke-width="5.0e-2" />
<line x1="7.0" y1="3.0" x2="7.459573" y2="2.8030405" stroke="black" stroke-width="5.0e-2" />
<line x1="7.0" y1="4.0" x2="7.4472136" y2="3.7763932" stroke="black" stroke-width="5.0e-2" />
<line x1="7.0" y1="5.0" x2="7.428746" y2="4.742752" stroke="black" stroke-width="5.0e-2" />
<line x1="7.0" y1="6.0" x2="7.4" y2="5.7" stroke="black" stroke-width="5.0e-2" />
<line x1="7.0" y1="7.0" x2="7.3535533" y2="6.6464467" stroke="black" stroke-width="5.0e-2" />
<line x1="7.0" y1="8.0" x2="7.27735" y2="7.583975" stroke="black" stroke-width="5.0e-2" />
<line x1="7.0" y1="9.0" x2="7.158114" y2="8.525659" stroke="black" stroke-width="5.0e-2" />
<line x1="7.0" y1="10.0" x2="7.0" y2="10.5" stroke="black" stroke-width="5.0e-2" />
<line x1="7.0" y1="11.0" x2="7.158114" y2="11.474341" stroke="black" stroke-width="5.0e-2" />
<line x1="7.0" y1="12.0" x2="7.27735" y2="12.416025" stroke="black" stroke-width="5.0e-2" />
<line x1="7.0" y1="13.0" x2="7.3535533" y2="13.353554" stroke="black" stroke-width="5.0e-2" />
<line x1="7.0" y1="14.0" x2="7.4" y2="14.3" stroke="black" stroke-width="5.0e-2" />
<line x1="7.0" y1="15.0" x2="7.428746" y2="15.257248" stroke="black" stroke-width="5.0e-2" />
<line x1="7.0" y1="16.0" x2="7.4472136" y2="16.223606" stroke="black" stroke-width="5.0e-2" />
<line x1="7.0" y1="17.0" x2="7.459573" y2="17.19696" stroke="black" stroke-width="5.0e-2" />
<line x1="7.0" y1="18.0" x2="7.4681644" y2="18.175562" stroke="black" stroke-width="5.0e-2" />
<line x1="7.0" y1="19.0" x2="7.474342" y2="19.158113" stroke="black" stroke-width="5.0e-2" />
<line x1="7.0" y1="20.0" x2="7.4789133" y2="20.143675" stroke="black" stroke-width="5.0e-2" />
<line x1="8.0" y1="1.0" x2="8.488093" y2="0.89153475" stroke="black" stroke-width="5.0e-2" />
<line x1="8.0" y1="2.0" x2="8.485071" y2="1.8787322" stroke="black" stroke-width="5.0e-2" />
<line x1="8.0" y1="3.0" x2="8.480762" y2="2.8626394" stroke="black" stroke-width="5.0e-2" />
<line x1="8.0" y1="4.0" x2="8.474341" y2="3.841886" stroke="black" stroke-width="5.0e-2" />
<line x1="8.0" y1="5.0" x2="8.464238" y2="4.814305" stroke="black" stroke-width="5.0e-2" />
<line x1="8.0" y1="6.0" x2="8.447213" y2="5.776393" stroke="black" stroke-width="5.0e-2" />
<line x1="8.0" y1="7.0" x2="8.416025" y2="6.72265" stroke="black" stroke-width="5.0e-2" />
<line x1="8.0" y1="8.0" x2="8.353554" y2="7.6464467" stroke="black" stroke-width="5.0e-2" />
<line x1="8.0" y1="9.0" x2="8.223607" y2="8.552787" stroke="black" stroke-width="5.0e-2" />
<line x1="8.0" y1="10.0" x2="8.0" y2="10.5" stroke="black" stroke-width="5.0e-2" />
<line x1="8.0" y1="11.0" x2="8.223607" y2="11.447213" stroke="black" stroke-width="5.0e-2" />
<line x1="8.0" y1="12.0" x2="8.353554" y2="12.353554" stroke="black" stroke-width="5.0e-2" />
<line x1="8.0" y1="13.0" x2="8.416025" y2="13.27735" stroke="black" stroke-width="5.0e-2" />
<line x1="8.0" y1="14.0" x2="8.447213" y2="14.223607" stroke="black" stroke-width="5.0e-2" />
<line x1="8.0" y1="15.0" x2="8.464238" y2="15.185696" stroke="black" stroke-width="5.0e-2" />
<line x1="8.0" y1="16.0" x2="8.474341" y2="16.158113" stroke="black" stroke-width="5.0e-2" />
<line x1="8.0" y1="17.0" x2="8.480762" y2="17.13736" stroke="black" stroke-width="5.0e-2" />
<line x1="8.0" y1="18.0" x2="8.485071" y2="18.121267" stroke="black" stroke-width="5.0e-2" />
<line x1="8.0" y1="19.0" x2="8.488093" y2="19.108465" stroke="black" stroke-width="5.0e-2" />
<line x1="8.0" y1="20.0" x2="8.490291" y2="20.098059" stroke="black" stroke-width="5.0e-2" />
<line x1="9.0" y1="1.0" x2="9.496942" y2="0.9447843" stroke="black" stroke-width="5.0e-2" />
<line x1="9.0" y1="2.0" x2="9.496139" y2="1.9379827" stroke="black" stroke-width="5.0e-2" />
<line x1="9.0" y1="3.0" x2="9.494975" y2="2.9292893" stroke="black" stroke-width="5.0e-2" />
<line x1="9.0" y1="4.0" x2="9.493197" y2="3.9178004" stroke="black" stroke-width="5.0e-2" />
<line x1="9.0" y1="5.0" x2="9.490291" y2="4.901942" stroke="black" stroke-width="5.0e-2" />
<line x1="9.0" y1="6.0" x2="9.485071" y2="5.878732" stroke="black" stroke-width="5.0e-2" />
<line x1="9.0" y1="7.0" x2="9.474341" y2="6.841886" stroke="black" stroke-width="5.0e-2" />
<line x1="9.0" y1="8.0" x2="9.447213" y2="7.7763934" stroke="black" stroke-width="5.0e-2" />
<line x1="9.0" y1="9.0" x2="9.353554" y2="8.646446" stroke="black" stroke-width="5.0e-2" />
<line x1="9.0" y1="10.0" x2="9.0" y2="10.5" stroke="black" stroke-width="5.0e-2" />
<line x1="9.0" y1="11.0" x2="9.353554" y2="11.353554" stroke="black" stroke-width="5.0e-2" />
<line x1="9.0" y1="12.0" x2="9.447213" y2="12.223607" stroke="black" stroke-width="5.0e-2" />
<line x1="9.0" y1="13.0" x2="9.474341" y2="13.1581135" stroke="black" stroke-width="5.0e-2" />
<line x1="9.0" y1="14.0" x2="9.485071" y2="14.121268" stroke="black" stroke-width="5.0e-2" />
<line x1="9.0" y1="15.0" x2="9.490291" y2="15.098058" stroke="black" stroke-width="5.0e-2" />
<line x1="9.0" y1="16.0" x2="9.493197" y2="16.0822" stroke="black" stroke-width="5.0e-2" />
<line x1="9.0" y1="17.0" x2="9.494975" y2="17.070711" stroke="black" stroke-width="5.0e-2" />
<line x1="9.0" y1="18.0" x2="9.496139" y2="18.062017" stroke="black" stroke-width="5.0e-2" />
<line x1="9.0" y1="19.0" x2="9.496942" y2="19.055216" stroke="black" stroke-width="5.0e-2" />
<line x1="9.0" y1="20.0" x2="9.497519" y2="20.049751" stroke="black" stroke-width="5.0e-2" />
<line x1="10.0" y1="1.0" x2="10.5" y2="1.0" stroke="black" stroke-width="5.0e-2" />
<line x1="10.0" y1="2.0" x2="10.5" y2="2.0" stroke="black" stroke-width="5.0e-2" />
<line x1="10.0" y1="3.0" x2="10.5" y2="3.0" stroke="black" stroke-width="5.0e-2" />
<line x1="10.0" y1="4.0" x2="10.5" y2="4.0" stroke="black" stroke-width="5.0e-2" />
<line x1="10.0" y1="5.0" x2="10.5" y2="5.0" stroke="black" stroke-width="5.0e-2" />
<line x1="10.0" y1="6.0" x2="10.5" y2="6.0" stroke="black" stroke-width="5.0e-2" />
<line x1="10.0" y1="7.0" x2="10.5" y2="7.0" stroke="black" stroke-width="5.0e-2" />
<line x1="10.0" y1="8.0" x2="10.5" y2="8.0" stroke="black" stroke-width="5.0e-2" />
<line x1="10.0" y1="9.0" x2="10.5" y2="9.0" stroke="black" stroke-width="5.0e-2" />
<line x1="10.0" y1="10.0" x2="10.0" y2="10.5" stroke="black" stroke-width="5.0e-2" />
<line x1="10.0" y1="11.0" x2="10.5" y2="11.0" stroke="black" stroke-width="5.0e-2" />
<line x1="10.0" y1="12.0" x2="10.5" y2="12.0" stroke="black" stroke-width="5.0e-2" />
<line x1="10.0" y1="13.0" x2="10.5" y2="13.0" stroke="black" stroke-width="5.0e-2" />
<line x1="10.0" y1="14.0" x2="10.5" y2="14.0" stroke="black" stroke-width="5.0e-2" />
<line x1="10.0" y1="15.0" x2="10.5" y2="15.0" stroke="black" stroke-width="5.0e-2" />
<line x1="10.0" y1="16.0" x2="10.5" y2="16.0" stroke="black" stroke-width="5.0e-2" />
<line x1="10.0" y1="17.0" x2="10.5" y2="17.0" stroke="black" stroke-width="5.0e-2" />
<line x1="10.0" y1="18.0" x2="10.5" y2="18.0" stroke="black" stroke-width="5.0e-2" />
<line x1="10.0" y1="19.0" x2="10.5" y2="19.0" stroke="black" stroke-width="5.0e-2" />
<line x1="10.0" y1="20.0" x2="10.5" y2="20.0" stroke="black" stroke-width="5.0e-2" />
<line x1="11.0" y1="1.0" x2="11.496942" y2="1.0552157" stroke="black" stroke-width="5.0e-2" />
<line x1="11.0" y1="2.0" x2="11.496139" y2="2.0620172" stroke="black" stroke-width="5.0e-2" />
<line x1="11.0" y1="3.0" x2="11.494975" y2="3.0707107" stroke="black" stroke-width="5.0e-2" />
<line x1="11.0" y1="4.0" x2="11.493197" y2="4.0821996" stroke="black" stroke-width="5.0e-2" />
<line x1="11.0" y1="5.0" x2="11.490291" y2="5.098058" stroke="black" stroke-width="5.0e-2" />
<line x1="11.0" y1="6.0" x2="11.485071" y2="6.121268" stroke="black" stroke-width="5.0e-2" />
<line x1="11.0" y1="7.0" x2="11.474341" y2="7.158114" stroke="black" stroke-width="5.0e-2" />
<line x1="11.0" y1="8.0" x2="11.447213" y2="8.223607" stroke="black" stroke-width="5.0e-2" />
<line x1="11.0" y1="9.0" x2="11.353554" y2="9.353554" stroke="black" stroke-width="5.0e-2" />
<line x1="11.0" y1="10.0" x2="11.0" y2="10.5" stroke="black" stroke-width="5.0e-2" />
<line x1="11.0" y1="11.0" x2="11.353554" y2="10.646446" stroke="black" stroke-width="5.0e-2" />
<line x1="11.0" y1="12.0" x2="11.447213" y2="11.776393" stroke="black" stroke-width="5.0e-2" />
<line x1="11.0" y1="13.0" x2="11.474341" y2="12.8418865" stroke="black" stroke-width="5.0e-2" />
<line x1="11.0" y1="14.0" x2="11.485071" y2="13.878732" stroke="black" stroke-width="5.0e-2" />
<line x1="11.0" y1="15.0" x2="11.490291" y2="14.901942" stroke="black" stroke-width="5.0e-2" />
<line x1="11.0" y1="16.0" x2="11.493197" y2="15.917801" stroke="black" stroke-width="5.0e-2" />
<line x1="11.0" y1="17.0" x2="11.494975" y2="16.929289" stroke="black" stroke-width="5.0e-2" />
<line x1="11.0" y1="18.0" x2="11.496139" y2="17.937983" stroke="black" stroke-width="5.0e-2" />
<line x1="11.0" y1="19.0" x2="11.496942" y2="18.944784" stroke="black" stroke-width="5.0e-2" />
<line x1="11.0" y1="20.0" x2="11.497519" y2="19.950249" stroke="black" stroke-width="5.0e-2" />
<line x1="12.0" y1="1.0" x2="12.488093" y2="1.1084652" stroke="black" stroke-width="5.0e-2" />
<line x1="12.0" y1="2.0" x2="12.485071" y2="2.1212678" stroke="black" stroke-width="5.0e-2" />
<line x1="12.0" y1="3.0" x2="12.480762" y2="3.1373606" stroke="black" stroke-width="5.0e-2" />
<line x1="12.0" y1="4.0" x2="12.474341" y2="4.158114" stroke="black" stroke-width="5.0e-2" />
<line x1="12.0" y1="5.0" x2="12.464238" y2="5.185695" stroke="black" stroke-width="5.0e-2" />
<line x1="12.0" y1="6.0" x2="12.447213" y2="6.223607" stroke="black" stroke-width="5.0e-2" />
<line x1="12.0" y1="7.0" x2="12.416025" y2="7.27735" stroke="black" stroke-width="5.0e-2" />
<line x1="12.0" y1="8.0" x2="12.353554" y2="8.353554" stroke="black" stroke-width="5.0e-2" />
<line x1="12.0" y1="9.0" x2="12.223607" y2="9.447213" stroke="black" stroke-width="5.0e-2" />
<line x1="12.0" y1="10.0" x2="12.0" y2="10.5" stroke="black" stroke-width="5.0e-2" />
<line x1="12.0" y1="11.0" x2="12.223607" y2="10.552787" stroke="black" stroke-width="5.0e-2" />
<line x1="12.0" y1="12.0" x2="12.353554" y2="11.646446" stroke="black" stroke-width="5.0e-2" />
<line x1="12.0" y1="13.0" x2="12.416025" y2="12.72265" stroke="black" stroke-width="5.0e-2" />
<line x1="12.0" y1="14.0" x2="12.447213" y2="13.776393" stroke="black" stroke-width="5.0e-2" />
<line x1="12.0" y1="15.0" x2="12.464238" y2="14.814304" stroke="black" stroke-width="5.0e-2" />
<line x1="12.0" y1="16.0" x2="12.474341" y2="15.8418865" stroke="black" stroke-width="5.0e-2" />
<line x1="12.0" y1="17.0" x2="12.480762" y2="16.86264" stroke="black" stroke-width="5.0e-2" />
<line x1="12.0" y1="18.0" x2="12.485071" y2="17.878733" stroke="black" stroke-width="5.0e-2" />
<line x1="12.0" y1="19.0" x2="12.488093" y2="18.891535" stroke="black" stroke-width="5.0e-2" />
<line x1="12.0" y1="20.0" x2="12.490291" y2="19.901941" stroke="black" stroke-width="5.0e-2" />
<line x1="13.0" y1="1.0" x2="13.474341" y2="1.158114" stroke="black" stroke-width="5.0e-2" />
<line x1="13.0" y1="2.0" x2="13.468164" y2="2.1755617" stroke="black" stroke-width="5.0e-2" />
<line x1="13.0" y1="3.0" x2="13.459573" y2="3.1969595" stroke="black" stroke-width="5.0e-2" />
<line x1="13.0" y1="4.0" x2="13.447213" y2="4.2236066" stroke="black" stroke-width="5.0e-2" />
<line x1="13.0" y1="5.0" x2="13.428746" y2="5.257248" stroke="black" stroke-width="5.0e-2" />
<line x1="13.0" y1="6.0" x2="13.4" y2="6.3" stroke="black" stroke-width="5.0e-2" />
<line x1="13.0" y1="7.0" x2="13.353554" y2="7.3535533" stroke="black" stroke-width="5.0e-2" />
<line x1="13.0" y1="8.0" x2="13.27735" y2="8.416025" stroke="black" stroke-width="5.0e-2" />
<line x1="13.0" y1="9.0" x2="13.1581135" y2="9.474341" stroke="black" stroke-width="5.0e-2" />
<line x1="13.0" y1="10.0" x2="13.0" y2="10.5" stroke="black" stroke-width="5.0e-2" />
<line x1="13.0" y1="11.0" x2="13.1581135" y2="10.525659" stroke="black" stroke-width="5.0e-2" />
<line x1="13.0" y1="12.0" x2="13.27735" y2="11.583975" stroke="black" stroke-width="5.0e-2" />
<line x1="13.0" y1="13.0" x2="13.353554" y2="12.646446" stroke="black" stroke-width="5.0e-2" />
<line x1="13.0" y1="14.0" x2="13.4" y2="13.7" stroke="black" stroke-width="5.0e-2" />
<line x1="13.0" y1="15.0" x2="13.428746" y2="14.742752" stroke="black" stroke-width="5.0e-2" />
<line x1="13.0" y1="16.0" x2="13.447213" y2="15.776393" stroke="black" stroke-width="5.0e-2" />
<line x1="13.0" y1="17.0" x2="13.459573" y2="16.80304" stroke="black" stroke-width="5.0e-2" />
<line x1="13.0" y1="18.0" x2="13.468164" y2="17.824438" stroke="black" stroke-width="5.0e-2" />
<line x1="13.0" y1="19.0" x2="13.474341" y2="18.841887" stroke="black" stroke-width="5.0e-2" />
<line x1="13.0" y1="20.0" x2="13.478913" y2="19.856325" stroke="black" stroke-width="5.0e-2" />
<line x1="14.0" y1="1.0" x2="14.456905" y2="1.2030692" stroke="black" stroke-width="5.0e-2" />
<line x1="14.0" y1="2.0" x2="14.447213" y2="2.2236068" stroke="black" stroke-width="5.0e-2" />
<line x1="14.0" y1="3.0" x2="14.434121" y2="3.2480695" stroke="black" stroke-width="5.0e-2" />
<line x1="14.0" y1="4.0" x2="14.416025" y2="4.27735" stroke="black" stroke-width="5.0e-2" />
<line x1="14.0" y1="5.0" x2="14.390434" y2="5.3123474" stroke="black" stroke-width="5.0e-2" />
<line x1="14.0" y1="6.0" x2="14.353554" y2="6.3535533" stroke="black" stroke-width="5.0e-2" />
<line x1="14.0" y1="7.0" x2="14.3" y2="7.4" stroke="black" stroke-width="5.0e-2" />
<line x1="14.0" y1="8.0" x2="14.223607" y2="8.447213" stroke="black" stroke-width="5.0e-2" />
<line x1="14.0" y1="9.0" x2="14.121268" y2="9.485071" stroke="black" stroke-width="5.0e-2" />
<line x1="14.0" y1="10.0" x2="14.0" y2="10.5" stroke="black" stroke-width="5.0e-2" />
<line x1="14.0" y1="11.0" x2="14.121268" y2="10.514929" stroke="black" stroke-width="5.0e-2" />
<line x1="14.0" y1="12.0" x2="14.223607" y2="11.552787" stroke="black" stroke-width="5.0e-2" />
<line x1="14.0" y1="13.0" x2="14.3" y2="12.6" stroke="black" stroke-width="5.0e-2" />
<line x1="14.0" y1="14.0" x2="14.353554" y2="13.646446" stroke="black" stroke-width="5.0e-2" />
<line x1="14.0" y1="15.0" x2="14.390434" y2="14.687653" stroke="black" stroke-width="5.0e-2" />
<line x1="14.0" y1="16.0" x2="14.416025" y2="15.72265" stroke="black" stroke-width="5.0e-2" />
<line x1="14.0" y1="17.0" x2="14.434121" y2="16.75193" stroke="black" stroke-width="5.0e-2" />
<line x1="14.0" y1="18.0" x2="14.447213" y2="17.776394" stroke="black" stroke-width="5.0e-2" />
<line x1="14.0" y1="19.0" x2="14.456905" y2="18.79693" stroke="black" stroke-width="5.0e-2" />
<line x1="14.0" y1="20.0" x2="14.464238" y2="19.814304" stroke="black" stroke-width="5.0e-2" />
<line x1="15.0" y1="1.0" x2="15.437078" y2="1.2428215" stroke="black" stroke-width="5.0e-2" />
<line x1="15.0" y1="2.0" x2="15.423999" y2="2.2649994" stroke="black" stroke-width="5.0e-2" />
<line x1="15.0" y1="3.0" x2="15.406867" y2="3.2906191" stroke="black" stroke-width="5.0e-2" />
<line x1="15.0" y1="4.0" x2="15.38411" y2="4.320092" stroke="black" stroke-width="5.0e-2" />
<line x1="15.0" y1="5.0" x2="15.353554" y2="5.3535533" stroke="black" stroke-width="5.0e-2" />
<line x1="15.0" y1="6.0" x2="15.312347" y2="6.3904343" stroke="black" stroke-width="5.0e-2" />
<line x1="15.0" y1="7.0" x2="15.257248" y2="7.4287467" stroke="black" stroke-width="5.0e-2" />
<line x1="15.0" y1="8.0" x2="15.185696" y2="8.464238" stroke="black" stroke-width="5.0e-2" />
<line x1="15.0" y1="9.0" x2="15.098058" y2="9.490291" stroke="black" stroke-width="5.0e-2" />
<line x1="15.0" y1="10.0" x2="15.0" y2="10.5" stroke="black" stroke-width="5.0e-2" />
<line x1="15.0" y1="11.0" x2="15.098058" y2="10.509709" stroke="black" stroke-width="5.0e-2" />
<line x1="15.0" y1="12.0" x2="15.185696" y2="11.535762" stroke="black" stroke-width="5.0e-2" />
<line x1="15.0" y1="13.0" x2="15.257248" y2="12.571254" stroke="black" stroke-width="5.0e-2" />
<line x1="15.0" y1="14.0" x2="15.312347" y2="13.609566" stroke="black" stroke-width="5.0e-2" />
<line x1="15.0" y1="15.0" x2="15.353554" y2="14.646446" stroke="black" stroke-width="5.0e-2" />
<line x1="15.0" y1="16.0" x2="15.38411" y2="15.679908" stroke="black" stroke-width="5.0e-2" />
<line x1="15.0" y1="17.0" x2="15.406867" y2="16.709381" stroke="black" stroke-width="5.0e-2" />
<line x1="15.0" y1="18.0" x2="15.423999" y2="17.735" stroke="black" stroke-width="5.0e-2" />
<line x1="15.0" y1="19.0" x2="15.437078" y2="18.75718" stroke="black" stroke-width="5.0e-2" />
<line x1="15.0" y1="20.0" x2="15.447213" y2="19.776394" stroke="black" stroke-width="5.0e-2" />
<line x1="16.0" y1="1.0" x2="16.416025" y2="1.2773502" stroke="black" stroke-width="5.0e-2" />
<line x1="16.0" y1="2.0" x2="16.4" y2="2.3" stroke="black" stroke-width="5.0e-2" />
<line x1="16.0" y1="3.0" x2="16.37963" y2="3.3253956" stroke="black" stroke-width="5.0e-2" />
<line x1="16.0" y1="4.0" x2="16.353554" y2="4.3535533" stroke="black" stroke-width="5.0e-2" />
<line x1="16.0" y1="5.0" x2="16.320091" y2="5.3841105" stroke="black" stroke-width="5.0e-2" />
<line x1="16.0" y1="6.0" x2="16.27735" y2="6.416025" stroke="black" stroke-width="5.0e-2" />
<line x1="16.0" y1="7.0" x2="16.223606" y2="7.4472136" stroke="black" stroke-width="5.0e-2" />
<line x1="16.0" y1="8.0" x2="16.158113" y2="8.474341" stroke="black" stroke-width="5.0e-2" />
<line x1="16.0" y1="9.0" x2="16.0822" y2="9.4931965" stroke="black" stroke-width="5.0e-2" />
<line x1="16.0" y1="10.0" x2="16.0" y2="10.5" stroke="black" stroke-width="5.0e-2" />
<line x1="16.0" y1="11.0" x2="16.0822" y2="10.5068035" stroke="black" stroke-width="5.0e-2" />
<line x1="16.0" y1="12.0" x2="16.158113" y2="11.525659" stroke="black" stroke-width="5.0e-2" />
<line x1="16.0" y1="13.0" x2="16.223606" y2="12.552787" stroke="black" stroke-width="5.0e-2" />
<line x1="16.0" y1="14.0" x2="16.27735" y2="13.583975" stroke="black" stroke-width="5.0e-2" />
<line x1="16.0" y1="15.0" x2="16.320091" y2="14.61589" stroke="black" stroke-width="5.0e-2" />
<line x1="16.0" y1="16.0" x2="16.353554" y2="15.646446" stroke="black" stroke-width="5.0e-2" />
<line x1="16.0" y1="17.0" x2="16.37963" y2="16.674604" stroke="black" stroke-width="5.0e-2" />
<line x1="16.0" y1="18.0" x2="16.4" y2="17.7" stroke="black" stroke-width="5.0e-2" />
<line x1="16.0" y1="19.0" x2="16.416025" y2="18.72265" stroke="black" stroke-width="5.0e-2" />
<line x1="16.0" y1="20.0" x2="16.428747" y2="19.742752" stroke="black" stroke-width="5.0e-2" />
<line x1="17.0" y1="1.0" x2="17.394676" y2="1.3069704" stroke="black" stroke-width="5.0e-2" />
<line x1="17.0" y1="2.0" x2="17.376287" y2="2.3292522" stroke="black" stroke-width="5.0e-2" />
<line x1="17.0" y1="3.0" x2="17.353554" y2="3.3535533" stroke="black" stroke-width="5.0e-2" />
<line x1="17.0" y1="4.0" x2="17.325396" y2="4.379628" stroke="black" stroke-width="5.0e-2" />
<line x1="17.0" y1="5.0" x2="17.290619" y2="5.4068666" stroke="black" stroke-width="5.0e-2" />
<line x1="17.0" y1="6.0" x2="17.24807" y2="6.4341216" stroke="black" stroke-width="5.0e-2" />
<line x1="17.0" y1="7.0" x2="17.19696" y2="7.4595723" stroke="black" stroke-width="5.0e-2" />
<line x1="17.0" y1="8.0" x2="17.13736" y2="8.480762" stroke="black" stroke-width="5.0e-2" />
<line x1="17.0" y1="9.0" x2="17.070711" y2="9.494975" stroke="black" stroke-width="5.0e-2" />
<line x1="17.0" y1="10.0" x2="17.0" y2="10.5" stroke="black" stroke-width="5.0e-2" />
<line x1="17.0" y1="11.0" x2="17.070711" y2="10.505025" stroke="black" stroke-width="5.0e-2" />
<line x1="17.0" y1="12.0" x2="17.13736" y2="11.519238" stroke="black" stroke-width="5.0e-2" />
<line x1="17.0" y1="13.0" x2="17.19696" y2="12.540427" stroke="black" stroke-width="5.0e-2" />
<line x1="17.0" y1="14.0" x2="17.24807" y2="13.565879" stroke="black" stroke-width="5.0e-2" />
<line x1="17.0" y1="15.0" x2="17.290619" y2="14.593133" stroke="black" stroke-width="5.0e-2" />
<line x1="17.0" y1="16.0" x2="17.325396" y2="15.620372" stroke="black" stroke-width="5.0e-2" />
<line x1="17.0" y1="17.0" x2="17.353554" y2="16.646446" stroke="black" stroke-width="5.0e-2" />
<line x1="17.0" y1="18.0" x2="17.376287" y2="17.670748" stroke="black" stroke-width="5.0e-2" />
<line x1="17.0" y1="19.0" x2="17.394676" y2="18.69303" stroke="black" stroke-width="5.0e-2" />
<line x1="17.0" y1="20.0" x2="17.409616" y2="19.713268" stroke="black" stroke-width="5.0e-2" />
<line x1="18.0" y1="1.0" x2="18.373705" y2="1.3321819" stroke="black" stroke-width="5.0e-2" />
<line x1="18.0" y1="2.0" x2="18.353554" y2="2.3535533" stroke="black" stroke-width="5.0e-2" />
<line x1="18.0" y1="3.0" x2="18.329252" y2="3.3762884" stroke="black" stroke-width="5.0e-2" />
<line x1="18.0" y1="4.0" x2="18.3" y2="4.4" stroke="black" stroke-width="5.0e-2" />
<line x1="18.0" y1="5.0" x2="18.265" y2="5.4239993" stroke="black" stroke-width="5.0e-2" />
<line x1="18.0" y1="6.0" x2="18.223606" y2="6.4472136" stroke="black" stroke-width="5.0e-2" />
<line x1="18.0" y1="7.0" x2="18.175562" y2="7.4681644" stroke="black" stroke-width="5.0e-2" />
<line x1="18.0" y1="8.0" x2="18.121267" y2="8.485071" stroke="black" stroke-width="5.0e-2" />
<line x1="18.0" y1="9.0" x2="18.062017" y2="9.496139" stroke="black" stroke-width="5.0e-2" />
<line x1="18.0" y1="10.0" x2="18.0" y2="10.5" stroke="black" stroke-width="5.0e-2" />
<line x1="18.0" y1="11.0" x2="18.062017" y2="10.503861" stroke="black" stroke-width="5.0e-2" />
<line x1="18.0" y1="12.0" x2="18.121267" y2="11.514929" stroke="black" stroke-width="5.0e-2" />
<line x1="18.0" y1="13.0" x2="18.175562" y2="12.531836" stroke="black" stroke-width="5.0e-2" />
<line x1="18.0" y1="14.0" x2="18.223606" y2="13.552787" stroke="black" stroke-width="5.0e-2" />
<line x1="18.0" y1="15.0" x2="18.265" y2="14.576001" stroke="black" stroke-width="5.0e-2" />
<line x1="18.0" y1="16.0" x2="18.3" y2="15.6" stroke="black" stroke-width="5.0e-2" />
<line x1="18.0" y1="17.0" x2="18.329252" y2="16.623713" stroke="black" stroke-width="5.0e-2" />
<line x1="18.0" y1="18.0" x2="18.353554" y2="17.646446" stroke="black" stroke-width="5.0e-2" />
<line x1="18.0" y1="19.0" x2="18.373705" y2="18.667818" stroke="black" stroke-width="5.0e-2" />
<line x1="18.0" y1="20.0" x2="18.390434" y2="19.687653" stroke="black" stroke-width="5.0e-2" />
<line x1="19.0" y1="1.0" x2="19.353554" y2="1.3535534" stroke="black" stroke-width="5.0e-2" />
<line x1="19.0" y1="2.0" x2="19.332182" y2="2.3737047" stroke="black" stroke-width="5.0e-2" />
<line x1="19.0" y1="3.0" x2="19.30697" y2="3.3946762" stroke="black" stroke-width="5.0e-2" />
<line x1="19.0" y1="4.0" x2="19.27735" y2="4.416025" stroke="black" stroke-width="5.0e-2" />
<line x1="19.0" y1="5.0" x2="19.24282" y2="5.4370785" stroke="black" stroke-width="5.0e-2" />
<line x1="19.0" y1="6.0" x2="19.20307" y2="6.456906" stroke="black" stroke-width="5.0e-2" />
<line x1="19.0" y1="7.0" x2="19.158113" y2="7.4743414" stroke="black" stroke-width="5.0e-2" />
<line x1="19.0" y1="8.0" x2="19.108465" y2="8.488093" stroke="black" stroke-width="5.0e-2" />
<line x1="19.0" y1="9.0" x2="19.055216" y2="9.496942" stroke="black" stroke-width="5.0e-2" />
<line x1="19.0" y1="10.0" x2="19.0" y2="10.5" stroke="black" stroke-width="5.0e-2" />
<line x1="19.0" y1="11.0" x2="19.055216" y2="10.503058" stroke="black" stroke-width="5.0e-2" />
<line x1="19.0" y1="12.0" x2="19.108465" y2="11.511907" stroke="black" stroke-width="5.0e-2" />
<line x1="19.0" y1="13.0" x2="19.158113" y2="12.525659" stroke="black" stroke-width="5.0e-2" />
<line x1="19.0" y1="14.0" x2="19.20307" y2="13.543095" stroke="black" stroke-width="5.0e-2" />
<line x1="19.0" y1="15.0" x2="19.24282" y2="14.562922" stroke="black" stroke-width="5.0e-2" />
<line x1="19.0" y1="16.0" x2="19.27735" y2="15.583975" stroke="black" stroke-width="5.0e-2" />
<line x1="19.0" y1="17.0" x2="19.30697" y2="16.605324" stroke="black" stroke-width="5.0e-2" />
<line x1="19.0" y1="18.0" x2="19.332182" y2="17.626295" stroke="black" stroke-width="5.0e-2" />
<line x1="19.0" y1="19.0" x2="19.353554" y2="18.646446" stroke="black" stroke-width="5.0e-2" />
<line x1="19.0" y1="20.0" x2="19.371647" y2="19.665518" stroke="black" stroke-width="5.0e-2" />
<line x1="20.0" y1="1.0" x2="20.334482" y2="1.3716471" stroke="black" stroke-width="5.0e-2" />
<line x1="20.0" y1="2.0" x2="20.312347" y2="2.3904345" stroke="black" stroke-width="5.0e-2" />
<line x1="20.0" y1="3.0" x2="20.286732" y2="3.409616" stroke="black" stroke-width="5.0e-2" />
<line x1="20.0" y1="4.0" x2="20.257248" y2="4.4287467" stroke="black" stroke-width="5.0e-2" />
<line x1="20.0" y1="5.0" x2="20.223606" y2="5.4472136" stroke="black" stroke-width="5.0e-2" />
<line x1="20.0" y1="6.0" x2="20.185696" y2="6.464238" stroke="black" stroke-width="5.0e-2" />
<line x1="20.0" y1="7.0" x2="20.143675" y2="7.4789133" stroke="black" stroke-width="5.0e-2" />
<line x1="20.0" y1="8.0" x2="20.098059" y2="8.490291" stroke="black" stroke-width="5.0e-2" />
<line x1="20.0" y1="9.0" x2="20.049751" y2="9.497519" stroke="black" stroke-width="5.0e-2" />
<line x1="20.0" y1="10.0" x2="20.0" y2="10.5" stroke="black" stroke-width="5.0e-2" />
<line x1="20.0" y1="11.0" x2="20.049751" y2="10.502481" stroke="black" stroke-width="5.0e-2" />
<line x1="20.0" y1="12.0" x2="20.098059" y2="11.509709" stroke="black" stroke-width="5.0e-2" />
<line x1="20.0" y1="13.0" x2="20.143675" y2="12.521087" stroke="black" stroke-width="5.0e-2" />
<line x1="20.0" y1="14.0" x2="20.185696" y2="13.535762" stroke="black" stroke-width="5.0e-2" />
<line x1="20.0" y1="15.0" x2="20.223606" y2="14.552787" stroke="black" stroke-width="5.0e-2" />
<line x1="20.0" y1="16.0" x2="20.257248" y2="15.571254" stroke="black" stroke-width="5.0e-2" />
<line x1="20.0" y1="17.0" x2="20.286732" y2="16.590384" stroke="black" stroke-width="5.0e-2" />
<line x1="20.0" y1="18.0" x2="20.312347" y2="17.609566" stroke="black" stroke-width="5.0e-2" />
<line x1="20.0" y1="19.0" x2="20.334482" y2="18.628353" stroke="black" stroke-width="5.0e-2" />
<line x1="20.0" y1="20.0" x2="20.353554" y2="19.646446" stroke="black" stroke-width="5.0e-2" />
<circle cx="10.0" cy="10.0" r="0.5" stroke="red" stroke-width="0.1" fill="none" />
<polyline points="2.0,10.0 1.7154016,9.347731 1.7244496,9.248141 1.7346956,9.148667 1.7461379,9.049324 1.758775,8.950126 1.7726053,8.851087 1.7876267,8.752221 1.8038373,8.653543 1.8212347,8.555068 1.8398166,8.45681 1.8595803,8.358783 1.880523,8.261001 1.9026417,8.163478 1.9259334,8.066228 1.9503947,7.9692655 1.9760222,7.872605 2.0028124,7.7762604 2.0307612,7.6802454 2.0598648,7.584574 2.0901191,7.4892607 2.1215198,7.3943186 2.1540623,7.299762 2.187742,7.205604 2.222554,7.1118593 2.2584934,7.018541 2.295555,6.9256625 2.3337338,6.8332376 2.373024,6.7412796 2.41342,6.649802 2.4549162,6.5588183 2.4975066,6.4683414 2.541185,6.3783846 2.585945,6.2889614 2.6317801,6.200084 2.6786842,6.1117663 2.7266502,6.024021 2.7756715,5.9368606 2.8257406,5.850298 2.8768506,5.7643456 2.928994,5.6790166 2.9821632,5.5943227 3.0363507,5.510277 3.0915487,5.426891 3.1477492,5.3441772 3.204944,5.2621484 3.2631247,5.1808157 3.3222833,5.1001916 3.3824108,5.0202875 3.4434988,4.9411154 3.5055385,4.8626866 3.5685208,4.7850127 3.6324365,4.708105 3.6972764,4.631975 3.763031,4.556634 3.8296912,4.4820924 3.8972468,4.4083614 3.9656885,4.335452 4.035006,4.2633753 4.1051893,4.192141 4.1762285,4.1217604 4.248113,4.052243 4.3208327,3.9836 4.3943763,3.9158406 4.468734,3.8489752 4.5438943,3.7830136 4.6198463,3.7179654 4.6965795,3.6538403 4.774082,3.5906477 4.8523436,3.5283968 4.931352,3.467097 5.011096,3.406757 5.091564,3.3473861 5.1727443,3.288993 5.254625,3.231586 5.337194,3.1751738 5.4204397,3.1197646 5.5043497,3.0653667 5.5889115,3.0119882 5.6741133,2.9596367 5.759942,2.9083202 5.846386,2.8580463 5.933432,2.8088224 6.0210676,2.7606556 6.1092796,2.7135534 6.1980553,2.6675224 6.287382,2.6225698 6.3772464,2.578702 6.467635,2.5359254 6.5585356,2.4942467 6.6499343,2.453672 6.7418175,2.414207 6.834172,2.3758578 6.926984,2.3386304 7.0202403,2.30253 7.1139274,2.2675622 7.208031,2.233732 7.302538,2.2010446 7.3974338,2.1695046 7.492705,2.139117 7.5883374,2.1098864 7.684317,2.081817 7.78063,2.054913 7.877262,2.0291786 7.974199,2.0046177 8.071426,1.9812338 8.16893,1.9590305 8.266696,1.9380112 8.36471,1.9181789 8.462956,1.8995368 8.561422,1.8820877 8.660092,1.8658341 8.758952,1.8507787 8.857987,1.8369237 8.957184,1.8242712 9.056526,1.8128232 9.156,1.8025814 9.255591,1.7935475 9.355285,1.7857229 9.455066,1.7791088 9.554919,1.7737061 9.654832,1.769516 9.754787,1.7665391 9.854772,1.7647758 9.95477,1.7642267 10.054768,1.7648916 10.15475,1.7667708 10.254702,1.7698641 10.354609,1.774171 10.454456,1.779691 10.55423,1.7864234 10.6539135,1.7943673 10.753493,1.8035216 10.852955,1.8138851 10.952283,1.8254563 11.051463,1.8382335 11.150481,1.8522149 11.249322,1.8673987 11.347971,1.8837827 11.446413,1.9013644 11.544634,1.9201415 11.64262,1.9401112 11.7403555,1.9612706 11.837827,1.9836167 11.9350195,2.0071464 12.031919,2.031856 12.1285095,2.0577424 12.224779,2.0848014 12.320712,2.1130295 12.416295,2.1424222 12.511513,2.1729755 12.606352,2.204685 12.700798,2.237546 12.794838,2.2715535 12.888457,2.3067029 12.981642,2.342989 13.074378,2.3804064 13.166652,2.4189496 13.25845,2.4586132 13.349757,2.499391 13.440562,2.5412776 13.53085,2.5842664 13.620608,2.6283514 13.709823,2.673526 13.798481,2.7197838 13.886569,2.7671177 13.974074,2.815521 14.060984,2.8649864 14.147284,2.9155066 14.232962,2.9670744 14.318006,3.0196822 14.402402,3.073322 14.486138,3.1279864 14.569202,3.183667 14.651582,3.2403557 14.733264,3.2980442 14.814238,3.3567238 14.89449,3.4163861 14.9740095,3.4770222 15.052783,3.538623 15.1308,3.6011798 15.208049,3.664683 15.284517,3.7291236 15.360194,3.7944918 15.435068,3.860778 15.509129,3.9279726 15.582364,3.9960654 15.654763,4.0650463 15.7263155,4.1349053 15.79701,4.205632 15.866837,4.2772164 15.935784,4.349647 16.003843,4.4229136 16.071003,4.4970055 16.137253,4.5719113 16.202583,4.64762 16.266985,4.7241206 16.330448,4.8014016 16.392963,4.8794518 16.454521,4.958259 16.515112,5.037812 16.574728,5.118099 16.633358,5.1991086 16.690994,5.2808275 16.74763,5.3632445 16.803253,5.446347 16.857857,5.530123 16.911434,5.6145597 16.963976,5.6996446 17.015474,5.785365 17.06592,5.8717084 17.115307,5.9586616 17.163628,6.0462117 17.210875,6.134346 17.257042,6.223051 17.30212,6.312314 17.346106,6.4021215 17.388988,6.49246 17.430765,6.583316 17.471426,6.6746755 17.510967,6.7665257 17.549383,6.858853 17.586666,6.9516425 17.622812,7.0448813 17.657814,7.1385555 17.691668,7.2326508 17.724367,7.327153 17.755909,7.4220486 17.786287,7.5173225 17.815498,7.6129613 17.843536,7.70895 17.870398,7.805275 17.896078,7.9019213 17.920574,7.9988747 17.94388,8.096121 17.965994,8.193645 17.986912,8.291432 18.006632,8.389469 18.02515,8.48774 18.042463,8.586229 18.058569,8.684924 18.073465,8.783809 18.087149,8.882868 18.099619,8.982087 18.110872,9.081452 18.120907,9.180947 18.129723,9.280558 18.137316,9.380269 18.143688,9.480066 18.148836,9.579934 18.15276,9.679857 18.155458,9.77982 18.15693,9.879809 18.157179,9.979809 18.1562,10.079804 18.153996,10.17978 18.150566,10.279721 18.14591,10.379613 18.14003,10.47944 18.132927,10.579187 18.124601,10.67884 18.115053,10.778383 18.104284,10.877802 18.092297,10.977081 18.079092,11.076205 18.064672,11.17516 18.04904,11.273931 18.032196,11.372501 18.014145,11.470859 17.994888,11.568987 17.974428,11.666871 17.952768,11.764497 17.92991,11.86185 17.90586,11.958915 17.880621,12.055676 17.854195,12.152122 17.826586,12.248235 17.797798,12.344002 17.767838,12.439408 17.736706,12.534439 17.70441,12.629081 17.670954,12.723318 17.636343,12.817138 17.600582,12.910524 17.563677,13.003465 17.52563,13.095944 17.486452,13.18795 17.446146,13.279468 17.404718,13.370482 17.362175,13.460981 17.318521,13.55095 17.273766,13.640375 17.227913,13.729243 17.180971,13.817541 17.132948,13.905255 17.083849,13.9923725 17.033684,14.078879 16.982458,14.1647625 16.93018,14.250009 16.876856,14.334605 16.822496,14.41854 16.767109,14.5018 16.710701,14.584372 16.65328,14.666243 16.594856,14.747401 16.535439,14.827835 16.475035,14.907531 16.413656,14.986478 16.35131,15.064663 16.288006,15.142075 16.223753,15.218701 16.158562,15.294531 16.092442,15.369552 16.025404,15.443753 15.957458,15.517123 15.888612,15.589651 15.818878,15.661325 15.748267,15.732136 15.676789,15.802071 15.604455,15.8711195 15.531276,15.939272 15.457262,16.006517 15.382425,16.072845 15.306777,16.138247 15.230329,16.202711 15.153091,16.266228 15.075077,16.328787 14.996298,16.39038 14.916765,16.450998 14.836491,16.510632 14.755487,16.56927 14.673767,16.626904 14.591342,16.683527 14.508225,16.739128 14.424429,16.793701 14.339966,16.847237 14.2548485,16.899725 14.16909,16.95116 14.082705,17.001534 13.995704,17.050837 13.908101,17.099062 13.81991,17.146204 13.731144,17.192253 13.641816,17.237204 13.55194,17.281048 13.46153,17.32378 13.370599,17.365393 13.279161,17.40588 13.187231,17.445234 13.094822,17.48345 13.001947,17.520523 12.908623,17.556446 12.814861,17.591213 12.720677,17.62482 12.626085,17.65726 12.5311,17.68853 12.435736,17.718624 12.340007,17.747538 12.243928,17.775267 12.147513,17.801805 12.050778,17.82715 11.953738,17.851297 11.856406,17.874245 11.758799,17.895987 11.66093,17.91652 11.562814,17.93584 11.464467,17.953949 11.365904,17.970839 11.267139,17.98651 11.168189,18.000957 11.069067,18.01418 10.9697895,18.026175 10.870371,18.036942 10.770826,18.046478 10.671172,18.054783 10.571423,18.061853 10.471593,18.067688 10.371698,18.072289 10.271755,18.075651 10.171778,18.077778 10.071782,18.078667 9.971783,18.078318 9.871796,18.07673 9.771835,18.073906 9.671918,18.069843 9.572059,18.064545 9.472273,18.05801 9.372575,18.05024 9.272981,18.041235 9.173506,18.030998 9.074165,18.01953 8.974975,18.00683 8.875949,17.992905 8.777103,17.977753 8.678453,17.961378 8.580014,17.94378 8.4818,17.924965 8.383827,17.904934 8.28611,17.88369 8.1886635,17.861237 8.091502,17.837578 7.9946423,17.812716 7.898098,17.786655 7.801884,17.7594 7.7060156,17.730953 7.610507,17.70132 7.515373,17.670506 7.420629,17.638512 7.326289,17.605347 7.232368,17.571012 7.13888,17.535517 7.0458393,17.498863 6.953261,17.461058 6.8611584,17.422108 6.7695465,17.382017 6.678439,17.340794 6.5878506,17.29844 6.4977946,17.254969 6.408285,17.21038 6.319336,17.164686 6.230961,17.11789 6.1431737,17.07 6.055988,17.021023 5.969417,16.970968 5.8834743,16.919842 5.7981734,16.867653 5.713527,16.814407 5.629549,16.760115 5.546252,16.704782 5.4636483,16.64842 5.3817515,16.591036 5.3005743,16.532639 5.220129,16.473238 5.140428,16.412842 5.061484,16.35146 4.983309,16.2891 4.905915,16.225775 4.8293138,16.161491 4.753518,16.096262 4.6785393,16.030094 4.6043887,15.962999 4.5310783,15.894988 4.4586196,15.82607 4.3870234,15.756256 4.3163013,15.685557 4.246464,15.613984 4.177522,15.541548 4.109487,15.468259 4.042369,15.39413 3.9761784,15.319171 3.9109259,15.243394 3.8466215,15.166811 3.7832751,15.089434 3.7208967,15.011274 3.659496,14.932344 3.5990827,14.852656 3.5396662,14.7722225 3.4812558,14.691054 3.4238605,14.609165 3.3674893,14.526568 3.3121512,14.443275 3.2578547,14.3593 3.2046084,14.274654 3.1524205,14.189352 3.1012993,14.103407 3.0512528,14.016831 3.002289,13.929639 2.9544153,13.841843 2.9076395,13.753457 2.8619688,13.664495 2.8174102,13.574971 2.773971,13.484899 2.731658,13.394292 2.6904776,13.3031645 2.6504366,13.211531 2.6115413,13.119405 2.5737975,13.026801 2.5372114,12.933734 2.5017889,12.840218 2.4675353,12.746267 2.4344563,12.651896 2.4025571,12.55712 2.3718426,12.461954 2.3423178,12.366412 2.3139873,12.270509 2.2868557,12.17426 2.2609272,12.07768 2.236206,11.980783 2.212696,11.883586 2.190401,11.786103 2.1693246,11.68835 2.14947,11.590341 2.1308408,11.492091 2.1134396,11.393617 2.0972693,11.294932 2.0823326,11.196054 2.068632,11.096997 2.0561695,10.997777 2.0449474,10.898409 2.0349672,10.798908 2.0262308,10.69929 2.0187397,10.599571 2.012495,10.499766 2.007498,10.399891 2.0037494,10.299961 2.0012498,10.199992 2.0,10.1 2.0,10.0 2.0,10.0 2.0,9.9 2.0012498,9.800008 2.0037494,9.700039 2.007498,9.600109 2.012495,9.500234 2.0187397,9.400429 2.0262308,9.30071 2.0349672,9.201092 2.0449474,9.101591 2.0561695,9.002223 2.068632,8.903003 2.0823326,8.803946 2.0972693,8.705068 2.1134396,8.606383 2.1308408,8.507909 2.14947,8.409659 2.1693246,8.31165 2.190401,8.213897 2.212696,8.116414 2.236206,8.019217 2.2609272,7.9223204 2.2868557,7.8257403 2.3139873,7.729491 2.3423178,7.6335883 2.3718426,7.5380464 2.4025571,7.44288 2.4344563,7.3481045 2.4675353,7.253734 2.5017886,7.1597834 2.5372112,7.0662675 2.5737972,6.9732003 2.611541,6.8805966 2.6504364,6.7884707 2.6904774,6.696837 2.7316577,6.6057096 2.7739708,6.515103 2.81741,6.4250307 2.8619685,6.335507 2.9076393,6.2465453 2.954415,6.1581597 3.0022888,6.070364 3.0512526,5.9831715 3.101299,5.896596 3.15242,5.8106503 3.2046077,5.7253485 3.257854,5.640703 3.3121505,5.5567274 3.3674886,5.4734344 3.4238596,5.390837 3.4812548,5.3089485 3.5396652,5.227781 3.5990818,5.1473465 3.6594949,5.067658 3.7208955,4.9887276 3.783274,4.9105678 3.8466203,4.8331904 3.9109247,4.7566075 3.9761772,4.680831 4.0423675,4.605872 4.1094856,4.5317426 4.1775208,4.4584537 4.2464623,4.386017 4.3162994,4.3144436 4.3870215,4.2437444 4.4586177,4.17393 4.5310764,4.105012 4.604387,4.037 4.6785374,3.9699054 4.753516,3.9037378 4.829312,3.8385074 4.905913,3.7742245 4.983307,3.7108986 5.061482,3.6485398 5.140426,3.5871575 5.220127,3.526761 5.3005724,3.4673598 5.3817496,3.4089627 5.4636464,3.3515787 5.54625,3.2952168 5.629547,3.2398853 5.7135253,3.185593 5.7981715,3.1323478 5.8834724,3.0801582 5.969415,3.029032 6.055986,2.9789772 6.143172,2.9300013 6.230959,2.8821115 6.319334,2.8353155 6.408283,2.7896202 6.4977927,2.7450325 6.5878487,2.7015595 6.678437,2.6592076 6.7695446,2.6179833 6.8611565,2.5778928 6.953259,2.5389423 7.0458374,2.5011377 7.138878,2.4644847 7.232366,2.4289887 7.3262873,2.3946552 7.420627,2.3614893 7.5153713,2.3294961 7.610505,2.2986805 7.7060137,2.269047 7.8018823,2.2406 7.898096,2.213344 7.9946404,2.1872833 8.0915,2.1624212 8.188662,2.138762 8.286108,2.116309 8.383825,2.0950654 8.481798,2.0750346 8.580012,2.0562196 8.678452,2.038623 8.7771015,2.0222476 8.875947,2.0070956 8.974973,1.9931694 9.074163,1.9804711 9.173504,1.9690025 9.272979,1.9587653 9.372573,1.9497608 9.472271,1.9419905 9.572057,1.9354554 9.671916,1.9301565 9.771833,1.9260943 9.871794,1.9232694 9.971781,1.9216821 10.07178,1.921333 10.171776,1.9222214 10.271753,1.9243474 10.371696,1.9277105 10.471591,1.9323102 10.571421,1.9381458 10.67117,1.945216 10.770824,1.9535198 10.870369,1.9630558 10.969788,1.9738225 11.069065,1.985818 11.168187,1.9990406 11.267138,2.013488 11.365902,2.029158 11.464465,2.0460482 11.562812,2.0641556 11.660928,2.0834775 11.758797,2.104011 11.856404,2.1257527 11.953736,2.1486993 12.0507765,2.172847 12.1475115,2.1981924 12.243926,2.2247312 12.340005,2.2524593 12.435734,2.2813725 12.531098,2.3114662 12.626083,2.3427358 12.720675,2.3751764 12.814859,2.408783 12.908621,2.44355 13.0019455,2.4794726 13.09482,2.516545 13.187229,2.5547614 13.27916,2.594116 13.370597,2.6346025 13.461528,2.676215 13.551938,2.7189467 13.641814,2.7627912 13.731142,2.8077416 13.819908,2.853791 13.908099,2.9009323 13.995702,2.9491584 14.082703,2.9984617 14.169088,3.0488348 14.254847,3.1002698 14.339964,3.1527588 14.424427,3.2062938 14.508224,3.2608664 14.59134,3.3164685 14.673765,3.3730912 14.755486,3.4307263 14.836489,3.4893646 14.916763,3.5489972 14.996296,3.6096148 15.075075,3.6712084 15.15309,3.7337685 15.230327,3.7972853 15.306775,3.8617492 15.382423,3.9271505 15.45726,3.993479 15.531274,4.0607247 15.604453,4.128877 15.676787,4.197926 15.748265,4.267861 15.818876,4.3386707 15.88861,4.410345 15.957456,4.482873 16.025402,4.556243 16.09244,4.630444 16.15856,4.7054653 16.223751,4.781295 16.288004,4.857921 16.351309,4.935333 16.413656,5.013518 16.475035,5.0924644 16.535439,5.1721606 16.594856,5.252594 16.65328,5.3337526 16.710701,5.415624 16.767109,5.4981956 16.822496,5.581455 16.876856,5.66539 16.93018,5.749987 16.982458,5.8352337 17.033684,5.921117 17.083849,6.007623 17.132948,6.0947404 17.180971,6.1824546 17.227913,6.2707524 17.273766,6.359621 17.318521,6.4490466 17.362175,6.539016 17.404718,6.6295147 17.446146,6.7205296 17.486452,6.8120465 17.52563,6.9040523 17.563677,6.9965324 17.600582,7.0894732 17.636343,7.1828604 17.670954,7.2766795 17.70441,7.370917 17.736706,7.465558 17.767838,7.560589 17.797798,7.655995 17.826586,7.751762 17.854195,7.847875 17.880621,7.94432 17.90586,8.041082 17.929913,8.138147 17.95277,8.2355 17.97443,8.333126 17.99489,8.43101 18.014149,8.529139 18.0322,8.627496 18.049044,8.726067 18.064676,8.824837 18.079096,8.923792 18.0923,9.022916 18.104288,9.122195 18.115057,9.221614 18.124605,9.321157 18.13293,9.42081 18.140034,9.520557 18.145914,9.620384 18.15057,9.720276 18.154,9.820217 18.156204,9.920193 18.157183,10.020188 18.156935,10.120188 18.155462,10.220177 18.152763,10.32014 18.14884,10.420063 18.143692,10.519931 18.137321,10.619728 18.129728,10.7194395 18.120913,10.81905 18.110878,10.918545 18.099625,11.01791 18.087156,11.117129 18.073473,11.216188 18.058577,11.315073 18.04247,11.413768 18.025158,11.512258 18.00664,11.610528 17.98692,11.708565 17.966002,11.806353 17.943888,11.903876 17.920582,12.001122 17.896086,12.098076 17.870405,12.194722 17.843544,12.291047 17.815506,12.387036 17.786295,12.482675 17.755917,12.577949 17.724375,12.672844 17.691675,12.767346 17.657822,12.861442 17.62282,12.955115 17.586674,13.048354 17.54939,13.141144 17.510975,13.233471 17.471434,13.325321 17.430773,13.416681 17.388998,13.507537 17.346115,13.597876 17.30213,13.687683 17.257051,13.776946 17.210884,13.865651 17.163637,13.953786 17.115316,14.041336 17.06593,14.128289 17.015484,14.214633 16.963985,14.300353 16.911444,14.385438 16.857866,14.469874 16.803263,14.55365 16.747639,14.636752 16.691004,14.71917 16.633368,14.800889 16.574738,14.881898 16.515121,14.962185 16.45453,15.0417385 16.392973,15.120546 16.330458,15.198597 16.266994,15.275878 16.202593,15.352379 16.137262,15.428088 16.071012,15.502995 16.003853,15.577086 15.935794,15.650353 15.866846,15.722784 15.79702,15.794368 15.726325,15.865094 15.654773,15.934954 15.582374,16.003935 15.509139,16.072027 15.435079,16.139221 15.360205,16.205507 15.284528,16.270876 15.208059,16.335316 15.130811,16.398819 15.0527935,16.461376 14.97402,16.522978 14.894501,16.583614 14.814249,16.643276 14.733275,16.701956 14.651593,16.759644 14.569214,16.816332 14.48615,16.872013 14.402413,16.926678 14.318017,16.980318 14.232973,17.032927 14.147295,17.084494 14.060995,17.135014 13.974086,17.184479 13.88658,17.232882 13.798492,17.280216 13.709834,17.326473 13.62062,17.371649 13.530862,17.415733 13.440574,17.458723 13.349769,17.50061 13.258461,17.541388 13.166663,17.58105 13.074389,17.619595 12.981653,17.657013 12.888469,17.693298 12.794849,17.728447 12.7008095,17.762455 12.606363,17.795317 12.511524,17.827026 12.4163065,17.85758 12.320724,17.886972 12.224791,17.915201 12.128521,17.94226 12.03193,17.968147 11.935031,17.992857 11.837838,18.016386 11.740367,18.038733 11.642632,18.059893 11.544645,18.079863 11.4464245,18.09864 11.347982,18.116222 11.249333,18.132607 11.150493,18.14779 11.051475,18.161772 10.952294,18.17455 10.852966,18.186121 10.753505,18.196484 10.653925,18.205639 10.554241,18.213583 10.454468,18.220316 10.35462,18.225836 10.254713,18.230143 10.154761,18.233236 10.054779,18.235115 9.954782,18.23578 9.854783,18.235231 9.754799,18.233469 9.654843,18.230492 9.554931,18.226301 9.455077,18.2209 9.355296,18.214285 9.255603,18.20646 9.156012,18.197428 9.056538,18.187185 8.957195,18.175737 8.857999,18.163086 8.758964,18.149231 8.660104,18.134176 8.561434,18.117924 8.462968,18.100475 8.364721,18.081833 8.266707,18.062 8.1689415,18.040981 8.071438,18.018778 7.9742103,17.995394 7.8772736,17.970833 7.7806416,17.945099 7.6843286,17.918196 7.588349,17.890127 7.4927163,17.860897 7.397445,17.83051 7.3025494,17.79897 7.2080426,17.766281 7.113939,17.73245 7.0202518,17.697483 6.9269953,17.661383 6.8341827,17.624155 6.741828,17.585806 6.649945,17.54634 6.558546,17.505766 6.4676456,17.464087 6.3772564,17.42131 6.287392,17.377443 6.1980653,17.33249 6.109289,17.28646 6.021077,17.239359 5.9334416,17.191193 5.8463955,17.14197 5.7599516,17.091696 5.6741223,17.040379 5.5889206,16.988028 5.5043583,16.934649 5.4204483,16.88025 5.3372025,16.824842 5.2546334,16.76843 5.172753,16.711023 5.0915728,16.65263 5.0111046,16.59326 4.9313602,16.53292 4.8523517,16.47162 4.7740903,16.40937 4.696587,16.346178 4.619854,16.282053 4.5439014,16.217005 4.468741,16.151043 4.3943834,16.084177 4.3208394,16.016418 4.24812,15.947775 4.176235,15.878258 4.105196,15.807878 4.0350127,15.736644 3.9656951,15.664567 3.8972535,15.591658 3.8296976,15.517927 3.7630374,15.443386 3.6972826,15.368045 3.6324425,15.291915 3.5685265,15.215008 3.5055442,15.137334 3.4435043,15.058906 3.3824162,14.979733 3.3222885,14.89983 3.26313,14.819205 3.204949,14.737873 3.147754,14.655844 3.0915534,14.573131 3.0363553,14.489745 2.9821675,14.4057 2.928998,14.321006 2.8768544,14.235677 2.8257442,14.149725 2.7756748,14.063163 2.7266536,13.976003 2.6786873,13.888257 2.631783,13.799939 2.5859475,13.711062 2.5411873,13.621639 2.4975088,13.531683 2.4549181,13.441206 2.4134216,13.350223 2.3730252,13.258745 2.3337348,13.166787 2.2955558,13.074362 2.258494,12.981483 2.2225542,12.8881645 2.187742,12.794419 2.154062,12.700262 2.1215193,12.605705 2.0901184,12.510763 2.0598638,12.41545 2.0307598,12.319779 2.0028107,12.223764 1.9760203,12.127419 1.9503925,12.030759 1.9259309,11.933797 1.9026389,11.836547 1.8805199,11.739024 1.859577,11.641242 1.839813,11.543215 1.8212309,11.444957 1.8038331,11.346482 1.7876222,11.247805 1.7726004,11.148939 1.7587699,11.0499 1.7461324,10.950702 1.7346898,10.851358 1.7244437,10.751884 1.7153953,10.652295 2.0,10.0" stroke="green" stroke-width="0.1" fill="none" />
<polyline points="20.10004,10.0 20.00004,10.0 19.90004,10.0 19.80004,10.0 19.700039,10.0 19.600039,10.0 19.500038,10.0 19.400038,10.0 19.300037,10.0 19.200037,10.0 19.100037,10.0 19.000036,10.0 18.900036,10.0 18.800035,10.0 18.700035,10.0 18.600035,10.0 18.500034,10.0 18.400034,10.0 18.300034,10.0 18.200033,10.0 18.100033,10.0 18.000032,10.0 17.900032,10.0 17.800032,10.0 17.700031,10.0 17.60003,10.0 17.50003,10.0 17.40003,10.0 17.30003,10.0 17.20003,10.0 17.100029,10.0 17.000029,10.0 16.900028,10.0 16.800028,10.0 16.700027,10.0 16.600027,10.0 16.500027,10.0 16.400026,10.0 16.300026,10.0 16.200026,10.0 16.100025,10.0 16.000025,10.0 15.900024,10.0 15.800024,10.0 15.700024,10.0 15.600023,10.0 15.500023,10.0 15.4000225,10.0 15.300022,10.0 15.200022,10.0 15.100021,10.0 15.000021,10.0 14.900021,10.0 14.80002,10.0 14.70002,10.0 14.600019,10.0 14.500019,10.0 14.400019,10.0 14.300018,10.0 14.200018,10.0 14.100018,10.0 14.000017,10.0 13.900017,10.0 13.800016,10.0 13.700016,10.0 13.600016,10.0 13.500015,10.0 13.400015,10.0 13.3000145,10.0 13.200014,10.0 13.100014,10.0 13.000013,10.0 12.900013,10.0 12.800013,10.0 12.700012,10.0 12.600012,10.0 12.500011,10.0 12.400011,10.0 12.300011,10.0 12.20001,10.0 12.10001,10.0 12.00001,10.0 11.900009,10.0 11.800009,10.0 11.700008,10.0 11.600008,10.0 11.500008,10.0 11.400007,10.0 11.300007,10.0 11.2000065,10.0 11.100006,10.0 11.000006,10.0 10.900005,10.0 10.800005,10.0 10.700005,10.0 10.600004,10.0 10.500004,10.0 10.400003,10.0 10.300003,10.0 10.200003,10.0 10.100002,10.0 10.000002,10.0 9.900002,10.0 9.800001,10.0 9.700001,10.0 9.6,10.0 9.5,10.0 9.4,10.0 9.299999,10.0 9.199999,10.0 9.099998,10.0 8.999998,10.0 8.899998,10.0 8.799997,10.0 8.699997,10.0 8.599997,10.0 8.499996,10.0 8.399996,10.0 8.299995,10.0 8.199995,10.0 8.099995,10.0 7.9999943,10.0 7.8999944,10.0 7.7999945,10.0 7.6999946,10.0 7.5999947,10.0 7.4999948,10.0 7.399995,10.0 7.299995,10.0 7.199995,10.0 7.099995,10.0 6.999995,10.0 6.8999953,10.0 6.7999954,10.0 6.6999955,10.0 6.5999956,10.0 6.4999957,10.0 6.399996,10.0 6.299996,10.0 6.199996,10.0 6.099996,10.0 5.999996,10.0 5.8999963,10.0 5.7999964,10.0 5.6999965,10.0 5.5999966,10.0 5.4999967,10.0 5.3999968,10.0 5.299997,10.0 5.199997,10.0 5.099997,10.0 4.999997,10.0 4.899997,10.0 4.7999973,10.0 4.6999974,10.0 4.5999975,10.0 4.4999976,10.0 4.3999977,10.0 4.299998,10.0 4.199998,10.0 4.099998,10.0 3.999998,10.0 3.8999982,10.0 3.7999983,10.0 3.6999984,10.0 3.5999985,10.0 3.4999986,10.0 3.3999987,10.0 3.2999988,10.0 3.1999989,10.0 3.099999,10.0 2.999999,10.0 2.8999991,10.0 2.7999992,10.0 2.6999993,10.0 2.5999994,10.0 2.4999995,10.0 2.3999996,10.0 2.2999997,10.0 2.1999998,10.0 2.1,10.0 2.0,10.0 2.0,10.0 1.9,10.0 1.8,10.0 1.6999999,10.0 1.5999999,10.0 1.4999999,10.0 1.3999999,10.0 1.2999998,10.0 1.1999998,10.0 1.0999998,10.0 0.99999976,10.0 0.89999974,10.0 0.7999997,10.0 0.6999997,10.0 0.59999967,10.0 0.49999967,10.0 0.39999968,10.0 0.29999968,10.0 0.19999969,10.0 9.999969e-2,10.0 -3.1292439e-7,10.0 -0.100000314,10.0" stroke="green" stroke-width="0.1" fill="none" />
</svg>

